<?xml version="1.0" encoding="utf-8"?>
<!-- Generator: Adobe Illustrator 26.1.0, SVG Export Plug-In . SVG Version: 6.00 Build 0)  -->
<svg version="1.1" xmlns="http://www.w3.org/2000/svg" xmlns:xlink="http://www.w3.org/1999/xlink" x="0px" y="0px"
	 viewBox="0 0 49.1 70" style="enable-background:new 0 0 49.1 70;" xml:space="preserve">
<style type="text/css">
	.st0{display:none;}
	.st1{fill:#0B3C68;}
	.st2{fill:#0B3C68;stroke:#0B3C68;stroke-miterlimit:10;}
</style>
<g id="Layer_1" class="st0">
	
		<image style="display:inline;overflow:visible;" width="900" height="1080" xlink:href="7D5B22DA.jpg"  transform="matrix(0.663 0 0 0.663 -267.7951 -322.3026)">
	</image>
</g>
<g id="Layer_2">
	<g>
		<path class="st1" d="M30.9,10.6c0.1,0,0.3-0.1,0.4-0.2c0.8-1,0.9-2.2,0.2-3.6c-1-2.1-0.7-3.8,1.2-5.1c1.7-1.1,3.5-1.1,5.3-0.3
			c0.3,0.1,0.5,0.3,0.7,0.6c0.4,0.5,0.7,0.6,1.1,0.4c0,0,0.1,0,0.1,0.1l0,0.1c0,0,0,0.1,0,0.1l0,0c0,0,0.1,0.1,0.1,0.1l0,0
			c0,0.1,0,0.1,0.1,0.2l0,0c0,0,0.1,0.1,0,0.1v0c0,0-0.1,0.1,0,0.2v0c0.1,0.1,0,0.2,0,0.2c-0.1,0.2-0.3,0.2-0.5,0.3
			c-0.1,0-0.1,0.1-0.1,0.2c0.2,0.5,0.1,1,0,1.4c0,0.1,0,0.2,0,0.2c0.1,0.4,0.3,0.7,0.6,1c0.3,0.4,0.3,0.6,0,0.8l-0.4,0.2l0,0.6
			c-0.3,0.1-0.3,0.2-0.2,0.4c-0.2,0.2-0.3,0.5-0.3,0.7c0.1,0.6-0.2,0.7-0.6,0.8l-1.1,0c-0.3,0-0.5,0.2-0.6,0.4
			c0,0.4-0.2,0.9-0.4,1.3c0,0.1,0,0.2,0,0.2c1.6,2.6,2.4,5.2,2.1,7.7c0,0.2-0.1,0.4-0.2,0.6l-0.4,1.1l5.4,0.2c0.2,0,0.4,0,0.5-0.2
			c0.3-0.2,0.4-0.4,0.6-0.6c0.1-0.3,0.5-0.5,1-0.6c0.5,0,0.9-0.1,1.2-0.2c0.2-0.1,0.3-0.1,0.5-0.1c0.8,0,1,0.4,0.8,0.9
			c0.8,0.3,0.8,0.7,0.4,1c0.6,0.3,0.5,0.7,0,1.2c0.4,0.4,0.2,0.7-0.2,0.9h-1.8c-0.5,0.2-1.1,0.1-1.7-0.2c-2,0.3-5.9,1.5-7.6,1.5
			c-0.1,0-0.2,0-0.2,0.1c-1.4,1.9-2.3,4-2.6,6.3l0.2,0.1c0,2.8,2.5,5.2,4.5,7.3l-0.3,0.4c1.9,2.3,3.3,4.5,3.8,6.7
			c0.2,0.5,0.2,1,0.2,1.5c0,0.2-0.1,0.4-0.2,0.7c-0.7,1.3-1.2,3-1.5,4.8c-0.5,1.9-0.9,4.1-1.2,6.4l0.2,0.1c-0.6,1.9-0.7,3.7,0,3.9
			c1.3,1.2,2.8,2.3,4.5,3.2c0.1,0.1,0.2,0.1,0.3,0.1c1.7,0.5,1.4,1.8,0.1,1.8c-1.5,0.1-3.1,0-4.8-0.4c-1.4-0.4-2.9-0.7-4.3-0.9
			c-1.5-0.2-2.1-0.9-1.2-2.2l1-1.6l0-0.4c-0.1-0.4,0-0.7,0.4-0.7v-3.1l0.3,0c0-1.5,0-2.9-0.2-4.3c-0.1-1.2-0.1-2.3,0.2-3.2
			c0.5-1.3,1.1-2.4,1.9-3.2c0.3-0.5,0.3-1-0.3-1.5l-4.4-3l-0.4,0.4c-1.1-1.3-2.2-2.4-3.3-3.2c-0.1-0.1-0.2,0-0.3,0l-0.7,0.9
			c-1.7-2.1-3.8-3.5-6.2-4.4c0.6-0.9,0.8-2.3,0.7-4c-0.1-1.8,0.6-3,2.1-3.8c-0.1,0-0.1-0.1-0.1-0.4l7.6-6.5c0.9-0.7,1.7-1.3,2.4-1.4
			c0.3-0.2,0.4-0.3,0.2-0.6c0.3-0.3,0.2-0.9-0.1-1.1c0.2-0.6,0-0.8-0.6-0.9c0.2-0.4-0.7-1-1.2-0.4c-0.1-0.2-0.9,0.3-1.1,0.3
			c-0.2,0.1-0.5,0.5-0.5,1c0,0.9-0.4,1.4-0.8,1.8c-1.9,1.6-5.3,3-6,4.3c-0.3-1.4-0.8-2.8-1.6-4c0.2-0.2,0.3-0.4,0.1-0.7l-2.2-3.4
			l2.4-2.3c-0.4-0.3-0.3-0.6,0-1c1.1-0.9,2.3-1.8,3.1-2.7c0.2-0.3,0.5-0.5,0.9-0.7c0.8-0.4,1.6-0.6,2.4-0.7c0.1,0,0.2-0.1,0.3-0.1
			C30.5,10.7,30.7,10.6,30.9,10.6z"/>
		<g>
			<path class="st1" d="M4.5,61.1c0-0.1,0-0.2,0-0.4c0.2-1.9,0.5-3.7,1.2-5.4c-0.1-0.7,1.7-1.3,3.6-1.5l0.1-0.2
				c2.2-0.5,4.4-1,6.3-1.3c1.9-0.4,3.6-0.6,5-0.4c0.2,0,0.5,0,0.7-0.1c0.5-0.1,0.9-0.4,1.4-0.7c1.8-1.3,3.3-3.5,4.7-6.1l0.5,0.1
				c0.5-1.1,1.1-2.3,1.7-3.4c-0.4-0.4-0.8-0.7-1.1-1.1c0,0,0,0,0,0c-0.1,0-0.1-0.1-0.1-0.1c0,0,0,0,0,0c-0.6-0.2-1.1-0.3-1.7-0.5
				c-1.1-0.4-2.2-1-3.2-1.6c-0.3-0.2-0.6-0.4-0.9-0.5c-0.1-0.1-0.2-0.2-0.3-0.2c0,0-0.1-0.1-0.2-0.1c-0.3,1.2-0.9,2.6-1.6,4.1
				l0.5,0.2l-1.1,5.2c-0.2,0.7-0.7,1-1.3,0.8c-1.1-0.5-2.4-0.6-3.7-0.6c-1,0.1-2,0.5-3,1.1c-1.2,0.7-2.5,1.3-3.9,1.9l-0.1-0.2
				l-2.9,1.2c-0.2-0.4-0.5-0.4-0.8-0.1L4,51.3l-1.9-0.3c-1.5-0.3-1.9,0.5-1.5,2c0.4,1.3,0.7,2.8,0.8,4.3c0.3,1.7,0.7,3.2,1.4,4.6
				C3.3,63.1,4.7,62.9,4.5,61.1z"/>
		</g>
		<path class="st2" d="M17.1,36.4c0,0.2,0.3,0.3,0.7,0.2c0.3,0.2,0.6,0.1,0.8-0.1c0.2-0.1,0-0.1,0.3-0.2c0.5-0.1,0.8-0.4,0.6-1.2
			l0.1-1.9c-0.1-1.6-0.1-3,0.1-4l0.4-3.1c0.2-0.6,0.2-1.3,0.1-2c0-0.5,0.2-1,0.6-1.3c1.2-0.7,2.2-1.5,2.9-2.3
			c0.3,0.4,0.6-0.3,1.2-0.6c-0.2-1.6-0.3-3.1-0.2-4.7c-1.1,1-2.5,1.9-3.1,2.5c-0.4,0.2-0.5,0.4-0.5,0.8c-1,1-1.9,2-2.7,2.7
			c-0.9,0.9-1.2,1.8-1,2.8c0,2.4,0.1,4.6,0.6,6.7c0.1,0.6,0.1,1.1,0.1,1.7c-0.1,0.8-0.5,1.3-0.8,2.1c-0.3,0.4-0.3,0.7-0.4,1.2
			C16.6,36.2,16.8,36.4,17.1,36.4z"/>
		<polygon class="st1" points="24.8,26.5 24.8,30 36,21.9 33.7,15.6 25.4,22 		"/>
		<polygon class="st1" points="23.2,22.5 22.7,21.7 23.4,21.2 23.7,22 		"/>
	</g>
</g>
</svg>
