<?xml version="1.0" encoding="utf-8"?>
<!-- Generator: Adobe Illustrator 26.1.0, SVG Export Plug-In . SVG Version: 6.00 Build 0)  -->
<svg version="1.1" id="Layer_1" xmlns="http://www.w3.org/2000/svg" xmlns:xlink="http://www.w3.org/1999/xlink" x="0px" y="0px"
	 viewBox="0 0 46 70" style="enable-background:new 0 0 46 70;" xml:space="preserve">
<style type="text/css">
	.st0{fill:#FF0C46;}
</style>
<path class="st0" d="M26.3,3c1.3-2.6,5.9-2.7,7.5,0c0.2,0.3,0.2,0.6,0,0.9c0.4,0.9,0.5,1.6,0.3,2.2c-0.2,0.4-0.1,0.8,0.2,1.1
	C35,8,35,8.4,34.4,8.5c0.1,0.6,0,0.9-0.2,0.8c0.2,0.3,0.1,0.5-0.1,0.7c-0.1,0.2-0.1,0.3-0.1,0.5c0,0.5-0.3,0.7-0.7,0.7
	c-1-0.3-1.7-0.3-2.1,0.2c-0.6,0.5-0.8,1.2-0.9,1.9c0.1,0.2,0.1,0.3,0,0.4c-0.2,0.3-0.2,0.6-0.1,0.9c0.2,0.9,2.3,3.6,2.7,4.6
	c0.2,0.4,0.1,0.6-0.2,0.7c0.8,1.5,1.5,2.8,1.6,4.2c0.7-1,2-1.7,2.8-2.2c1.7-0.9,3.2-1.9,4.1-3.1c0.1-0.3,0.1-0.8,0.1-1.1
	c0.1-0.5,0.2-0.7,0.5-1c0.1-0.1,0.2-0.1,0.2-0.2c0.2-0.2,0.5-0.2,0.8-0.2c1.1-0.6,1.9-0.1,1.5,0.4c0.6-0.1,1.1,0.5,0.6,0.9
	c0.9,0.1,0.2,0.8,0.2,0.8c0.3,0.2,0.6,0.5-0.2,1c-0.6,0.2-1.4,0.6-2,1c0,0-0.1,0.1-0.1,0.1c-0.8,0.6-1.8,1.5-2.8,2.4
	c-0.4,0.4-0.9,0.8-1.3,1.2c-1.4,1.1-2.7,2.3-4.1,3.5c-0.5,0.4-1,0.5-1.4,0.1c-0.6-0.5-1.1-1.1-1.5-2c-0.1-0.4-0.3-0.4-0.7-0.3
	c-1.2,0.6-2,1.4-2.5,2.5c-0.2,0.5-0.4,1.1-0.5,1.7c-0.3,2.1-0.7,3.2-1.2,4c1,1.1,2.6,2,4.6,2.7c3.3,1.4,5.9,3.3,7.2,5.9
	c1.1,2.1,0.9,3.6-0.4,4.5c-0.4,0.3-0.9,0.6-1.4,0.8c-0.4,0.3-0.8,0.2-1.2-0.1c-3.4,1.6-7.7,4.3-10,6.7c-0.1,0.1-0.1,0.2,0,0.3
	c0.3,0,0.4,0.2,0.1,0.4c-0.1,0.3,0,0.4,0.2,0.3c0.6-0.1,0.7,0.4,0.1,0.5c-0.4,1.8-0.4,3.4,0.2,4.8c0.6,1.8-0.4,2.3-1.3,1.4
	c-1.1-1-2.1-2.2-3.1-3.7v-0.5c-0.2-0.5-0.4-0.9-0.7-1.2c-0.2-0.2-0.5-0.2-0.8-0.3c-0.5-0.4-1-0.9-1.2-1.5c-0.5-0.3-0.2-0.9,0.4-1
	c0.3-0.1,0.5-0.3,0.5-0.5c0.6-0.8,1.5-1.2,2-1.2c0.4-0.1,0.7,0,1.1,0c2-1.2,3.6-2.9,5.2-4.6c1.1-1.5,3.6-3.4,4.3-3.4l-0.2-0.5
	c-0.6-0.2-1.3-0.3-2-0.4c-0.9,0-1.7-0.2-2.4-0.6c-1.4-0.4-2.8-1.1-4.3-1.9c-0.3-0.1-0.5,0-0.5,0.3c-0.3,1.5-1.6,4.2-2.6,6.6
	c-1,2.6-2.2,5.3-4,6.2c-0.2,0.4-1,0.5-1.5,0c-1.5,1.2-3.8,3.7-6.2,6.2c-0.9,0.9-1.5,1.9-1.9,2.8c0.5,0.1,0.6,0.3,0.3,0.6
	c0.6,0,0.8,0.2,0.3,0.8c-0.4,0.8-0.5,1.7-0.3,2.7c0.4,0,0.6,0.1,0.6,0.4c0.7,0.1,1.1,0.4,1.4,0.8c0.5,0.5,0.3,0.8,0,1
	c-1.3,0.2-2.7,0.1-4.2-0.3c-0.8-0.4-1.5-0.9-2-1.6c-0.1-0.3-0.1-0.6-0.1-0.8l0-0.6l-0.4-0.5c-0.2-0.2-0.4-0.3-0.6-0.3
	c-0.5-0.3-0.9-0.6-1.2-1c-0.5-0.5-0.5-0.9,0.1-1.2c0.4-0.2,0.7-0.5,0.9-0.8c0.5-0.9,1.5-1.3,2.7-1.3c1.3-1.3,2.5-3,3.6-5.1
	c0.6-1.9,1.9-3.4,3.6-4.6c-0.3-0.3-0.3-0.6,0.2-0.7c1.3-0.5,2.8-0.7,3.1-3.1l0.7-4.4c0.1-1.3,0.3-2.5,0.7-3.6
	c0.2-1.1,0.2-2.2-0.1-3.3c0-1.2,0.1-2.3,0.7-3.2c0.5-0.8,1.2-1.6,2.1-2.2c-0.6-0.3-0.7-0.7-0.3-0.9c3-2.7,3.4-4.8,3.3-10.2
	c-0.6,0.2-1.1,0.9-1.3,0.4c-0.8,0.7-2,1.3-3.3,1.9c-0.5,0.2-0.7,0.7-0.8,1.3c0,0.8-0.1,1.5-0.4,2.1l-1,3.2c-0.4,1-0.6,2.5-0.8,4.1
	L14,33.8c0.1,0.9-0.3,1.1-0.8,1.2c-0.3,0-0.1,0-0.3,0.1c-0.2,0.2-0.6,0.2-0.9,0c-0.3,0-0.7-0.1-0.6-0.3c-0.3-0.1-0.5-0.4-0.4-0.7
	c0.2-0.6,0.2-0.8,0.6-1.2c0.4-0.7,0.9-1.2,1.2-2c0.2-0.6,0.2-1.2,0.2-1.8c-0.1-2.3,0.1-4.6,0.5-7.1c-0.1-1.1,0.4-2,1.5-2.7
	c1-0.6,2.1-1.5,3.3-2.3c0-0.4,0.2-0.7,0.6-0.8c0.8-0.6,2.9-1.5,4.4-2.6c1.2-1.3,2.2-2.3,2.8-2.1c1-1.2,1.3-2.6-0.1-4.1
	c-0.2,0-0.4-0.5-0.5-1.4L24.9,7c0,0-0.1,0-0.1,0l0-0.3c0,0-0.1-0.1-0.1,0c-0.4,0.8-0.9,1.7-1.2,2.1c0,0-0.1,0-0.1,0l0.1-0.3
	c0,0,0-0.1-0.1-0.1L22.5,9c-0.1,0.1-0.2,0.2-0.3,0.4c0,0.3-0.1,0.5-0.3,0.8L22,9.6c0-0.1-0.1-0.1-0.1,0c-0.2,0.4-0.5,0.8-0.9,1.2
	c0,0,0,0,0,0l0.3-0.7c0,0,0,0,0,0l-1.4,1.6l0.3-0.5c0,0,0-0.1-0.1-0.1c-0.7,0.8-1.6,1.2-2.8,1.3c0,0-0.1,0,0-0.1l0-0.1
	c0,0,0-0.1-0.1-0.1l-0.3,0l0.4-0.3L16.7,12c0,0,0,0,0,0l0.7-0.6c0,0,0,0,0,0c-0.3,0-0.7,0-1.1-0.1c0,0,0,0,0-0.1
	c0.2-0.3,0.6-0.5,1-0.7c0,0,0,0,0,0l-0.6,0c0,0,0,0,0,0l0.4-0.2c0,0,0-0.1,0-0.1L16.9,10c0,0,0-0.1,0-0.1l0.9-0.1
	c-0.2-0.1-0.5-0.1-1-0.1c0,0-0.1-0.1,0-0.1c0.5-0.7,1.3-0.9,2.4-0.8c-0.2-0.2-0.5-0.3-1-0.5c0,0,0,0,0,0c0.3-0.1,0.9,0,1.6,0.1
	c-0.4-0.1-0.8-0.2-1.1-0.2c0,0,0,0,0,0L19.6,8c-0.4-0.2-1-0.1-1.6,0c0,0-0.1,0,0-0.1c0.3-0.3,0.8-0.6,1.8-0.7c0-0.1-0.2-0.2-0.5-0.3
	c0,0,0,0,0-0.1c0.4-0.1,0.8-0.1,1.3,0c0-0.1-0.1-0.2-0.2-0.3c0,0,0-0.1,0-0.1c0.5-0.1,1-0.2,1.2-0.3C21.3,6,21,6,20.7,6c0,0,0,0,0,0
	l0.8-0.4l-1.1,0.3c1.1-0.3,1.9-0.7,2.1-1.2L21,5c0,0,0,0,0,0c0.8-0.4,1.5-0.8,2.1-1.3c0,0,0,0,0,0l-1.2,0.5C22,4,22.2,3.9,22.4,3.8
	c-0.2,0-0.3,0.1-0.5,0c0.7-0.2,1.2-0.4,1.7-0.6C23.8,3.1,23.9,3,24,2.9l0.2-0.2c0.2-0.2,0.4-0.3,0.6-0.4C25.5,2,26,2.3,26.3,3z"/>
</svg>
