<?xml version="1.0" encoding="utf-8"?>
<!-- Generator: Adobe Illustrator 26.1.0, SVG Export Plug-In . SVG Version: 6.00 Build 0)  -->
<svg version="1.1" xmlns="http://www.w3.org/2000/svg" xmlns:xlink="http://www.w3.org/1999/xlink" x="0px" y="0px"
	 viewBox="0 0 57.2 70" style="enable-background:new 0 0 57.2 70;" xml:space="preserve">
<style type="text/css">
	.st0{display:none;}
	.st1{fill:#0B3C68;}
	.st2{fill:#FF0C46;}
</style>
<g id="Layer_1" class="st0">
	
		<image style="display:inline;overflow:visible;" width="900" height="1080" xlink:href="AFBD83EE.jpg"  transform="matrix(0.663 0 0 0.663 -263.7442 -322.3026)">
	</image>
</g>
<g id="Layer_2">
	<g>
		<g>
			<path class="st1" d="M38.9,10.6c0.1,0,0.3-0.1,0.4-0.2c0.8-1,0.9-2.2,0.2-3.6c-1-2.1-0.7-3.8,1.2-5.1c1.7-1.1,3.5-1.1,5.3-0.3
				c0.3,0.1,0.5,0.3,0.7,0.6c0.4,0.5,0.7,0.6,1.1,0.4c0,0,0.1,0,0.1,0.1l0,0.1c0,0,0,0.1,0,0.1l0,0c0,0,0.1,0.1,0.1,0.1l0,0
				c0,0.1,0,0.1,0.1,0.2l0,0c0,0,0.1,0.1,0,0.1v0c0,0-0.1,0.1,0,0.2v0c0.1,0.1,0,0.2,0,0.2c-0.1,0.2-0.3,0.2-0.5,0.3
				c-0.1,0-0.1,0.1-0.1,0.2c0.2,0.5,0.1,1,0,1.4c0,0.1,0,0.2,0,0.2c0.1,0.4,0.3,0.7,0.6,1c0.3,0.4,0.3,0.6,0,0.8l-0.4,0.2l0,0.6
				c-0.3,0.1-0.3,0.2-0.2,0.4c-0.2,0.2-0.3,0.5-0.3,0.7c0.1,0.6-0.2,0.7-0.6,0.8l-1.1,0c-0.3,0-0.5,0.2-0.6,0.4
				c0,0.4-0.2,0.9-0.4,1.3c0,0.1,0,0.2,0,0.2c1.6,2.6,2.4,5.2,2.1,7.7c0,0.2-0.1,0.4-0.2,0.6l-0.4,1.1l5.4,0.2c0.2,0,0.4,0,0.5-0.2
				c0.3-0.2,0.4-0.4,0.6-0.6c0.1-0.3,0.5-0.5,1-0.6c0.5,0,0.9-0.1,1.2-0.2c0.2-0.1,0.3-0.1,0.5-0.1c0.8,0,1,0.4,0.8,0.9
				c0.8,0.3,0.8,0.7,0.4,1c0.6,0.3,0.5,0.7,0,1.2c0.4,0.4,0.2,0.7-0.2,0.9h-1.8c-0.5,0.2-1.1,0.1-1.7-0.2c-2,0.3-5.9,1.5-7.6,1.5
				c-0.1,0-0.2,0-0.2,0.1c-1.4,1.9-2.3,4-2.6,6.3l0.2,0.1c0,2.8,2.5,5.2,4.5,7.3l-0.3,0.4c1.9,2.3,3.3,4.5,3.8,6.7
				c0.2,0.5,0.2,1,0.2,1.5c0,0.2-0.1,0.4-0.2,0.7c-0.7,1.3-1.2,3-1.5,4.8c-0.5,1.9-0.9,4.1-1.2,6.4l0.2,0.1c-0.6,1.9-0.7,3.7,0,3.9
				c1.3,1.2,2.8,2.3,4.5,3.2c0.1,0.1,0.2,0.1,0.3,0.1c1.7,0.5,1.4,1.8,0.1,1.8c-1.5,0.1-3.1,0-4.8-0.4c-1.4-0.4-2.9-0.7-4.3-0.9
				c-1.5-0.2-2.1-0.9-1.2-2.2l1-1.6l0-0.4c-0.1-0.4,0-0.7,0.4-0.7l0-3.1l0.3,0c0-1.5,0-2.9-0.2-4.3c-0.1-1.2-0.1-2.3,0.2-3.2
				c0.5-1.3,1.1-2.4,1.9-3.2c0.3-0.5,0.3-1-0.3-1.5l-4.4-3l-0.4,0.4c-1.1-1.3-2.2-2.4-3.3-3.2c-0.1-0.1-0.2,0-0.3,0l-0.7,0.9
				c-1.7-2.1-3.8-3.5-6.2-4.4c0.6-0.9,0.8-2.3,0.7-4c-0.1-1.8,0.6-3,2.1-3.8c-0.1,0-0.1-0.1-0.1-0.4l7.6-6.5
				c0.9-0.7,1.7-1.3,2.4-1.4c0.3-0.2,0.4-0.3,0.2-0.6c0.3-0.3,0.2-0.9-0.1-1.1c0.2-0.6,0-0.8-0.6-0.9c0.2-0.4-0.7-1-1.2-0.4
				c-0.1-0.2-0.9,0.3-1.1,0.3c-0.2,0.1-0.5,0.5-0.5,1c0,0.9-0.4,1.4-0.8,1.8c-1.9,1.6-5.3,3-6,4.3c-0.3-1.4-0.8-2.8-1.6-4
				c0.2-0.2,0.3-0.4,0.1-0.7l-2.2-3.4l2.4-2.3c-0.4-0.3-0.3-0.6,0-1c1.1-0.9,2.3-1.8,3.1-2.7c0.2-0.3,0.5-0.5,0.9-0.7
				c0.8-0.4,1.6-0.6,2.4-0.7c0.1,0,0.2-0.1,0.3-0.1C38.4,10.7,38.7,10.6,38.9,10.6z"/>
			<path class="st1" d="M26.9,43.9c-0.8,2.4-1.9,3.2-3.1,3.3c-1.5,0.2-2.9,0.7-4.1,1.4c-1,2.9-2.2,4.8-3.5,5.7
				c-0.1,0-0.1,0.1-0.2,0.1c-0.5,0.5-1,0.4-1.5,0c-2.2,1.9-4.1,3.9-5.8,5.9c-0.2,1.7,0,3.1,0.6,4.4l0.8,1.4c0.3,1,1.4,0.7,1.5,0
				c0-2.2,1.4-5.3,2.2-6.8l-0.2-0.1c1-1.1,2.1-2.1,3.3-2.9l-0.1-0.2l1.3-0.8c0-0.3,0-0.7,0.6-0.8c0.3-0.1,0.5-0.2,0.6-0.5
				c0.5-0.7,1.2-1.1,2-1.1h0.9c1.4-0.8,3-2.2,4.6-4c1.3-1.7,2.9-3.1,4.4-3.7L31,44.7c-0.6-0.2-1.3-0.3-2-0.3
				C28.2,44.3,27.6,44.1,26.9,43.9z"/>
		</g>
		<path class="st2" d="M25.1,6.4c1.2-2.5,5.6-2.6,7.1,0c0.2,0.3,0.2,0.6,0,0.9c0.4,0.8,0.5,1.5,0.3,2.1c-0.2,0.4-0.1,0.7,0.2,1
			c0.7,0.8,0.6,1.2,0.1,1.3c0.1,0.6,0,0.8-0.2,0.8c0.2,0.3,0.1,0.5-0.1,0.6c-0.1,0.1-0.1,0.3-0.1,0.5c0,0.5-0.3,0.7-0.7,0.7
			c-0.9-0.3-1.7-0.3-2,0.2c-0.5,0.5-0.7,1.1-0.9,1.8c0.1,0.1,0.1,0.3,0,0.4c-0.1,0.3-0.2,0.6-0.1,0.8c0.2,0.8,2.2,3.4,2.6,4.4
			c0.2,0.3,0,0.5-0.2,0.6c0.8,1.4,1.4,2.6,1.6,4c0.7-0.9,1.9-1.6,2.6-2.1c1.6-0.9,3-1.8,3.9-2.9c0.1-0.3,0.1-0.7,0.1-1.1
			c0-0.5,0.2-0.7,0.5-1c0.1-0.1,0.2-0.1,0.2-0.2c0.2-0.2,0.4-0.2,0.7-0.1c1-0.6,1.8-0.1,1.4,0.4c0.5-0.1,1.1,0.4,0.6,0.9
			c0.9,0.1,0.2,0.8,0.2,0.8c0.3,0.2,0.6,0.5-0.2,0.9c-0.6,0.2-1.3,0.6-1.9,0.9c0,0-0.1,0-0.1,0.1c-0.8,0.6-1.7,1.4-2.6,2.3
			c-0.4,0.4-0.8,0.8-1.3,1.1c-1.3,1-2.6,2.1-3.9,3.3c-0.5,0.4-0.9,0.4-1.3,0.1c-0.5-0.5-1-1.1-1.4-1.9c-0.1-0.4-0.3-0.4-0.6-0.3
			c-1.1,0.6-1.9,1.3-2.4,2.3c-0.2,0.5-0.4,1-0.4,1.6c-0.3,2-0.7,3.1-1.1,3.8c1,1,2.5,1.9,4.4,2.6c3.2,1.4,5.6,3.2,6.9,5.6
			c1.1,2,0.9,3.4-0.4,4.3c-0.4,0.3-0.8,0.6-1.3,0.8c-0.4,0.3-0.7,0.2-1.1,0c-3.2,1.5-7.3,4-9.5,6.3c-0.1,0.1-0.1,0.2,0,0.3
			c0.3,0,0.3,0.2,0.1,0.3c-0.1,0.3,0,0.3,0.2,0.3c0.6-0.1,0.7,0.4,0.1,0.5c-0.4,1.7-0.3,3.2,0.2,4.5c0.6,1.7-0.4,2.2-1.3,1.3
			c-1.1-0.9-2-2.1-2.9-3.5v-0.5c-0.2-0.5-0.4-0.9-0.7-1.2c-0.2-0.1-0.5-0.2-0.8-0.3c-0.5-0.3-1-0.8-1.2-1.4c-0.4-0.3-0.2-0.9,0.4-1
			c0.3-0.1,0.5-0.3,0.5-0.5c0.6-0.8,1.4-1.2,1.9-1.2c0.3-0.1,0.7,0,1.1,0c1.9-1.1,3.4-2.8,4.9-4.4c1-1.4,3.4-3.2,4.1-3.2l-0.2-0.5
			c-0.6-0.2-1.2-0.3-1.9-0.4c-0.8,0-1.6-0.2-2.3-0.5c-1.3-0.3-2.7-1-4.1-1.8c-0.3-0.1-0.5,0-0.5,0.3c-0.3,1.4-1.6,3.9-2.5,6.3
			c-0.9,2.4-2.1,5-3.8,5.9c-0.1,0.4-1,0.5-1.4,0c-1.4,1.2-3.6,3.5-5.9,5.9c-0.8,0.9-1.4,1.8-1.8,2.7c0.5,0.1,0.6,0.3,0.3,0.6
			c0.6,0,0.8,0.2,0.3,0.8C7,65.2,7,66.1,7.2,67c0.3,0,0.5,0.1,0.6,0.3c0.6,0.1,1.1,0.3,1.3,0.7c0.5,0.5,0.3,0.7,0,0.9
			c-1.2,0.2-2.6,0.1-4-0.2c-0.8-0.3-1.4-0.9-1.9-1.5C3.1,67,3,66.7,3.1,66.5l0-0.5l-0.4-0.5c-0.2-0.2-0.4-0.3-0.6-0.3
			c-0.5-0.3-0.9-0.6-1.1-1c-0.5-0.5-0.5-0.9,0.1-1.1c0.4-0.2,0.7-0.5,0.9-0.8c0.5-0.8,1.4-1.2,2.6-1.3c1.2-1.2,2.4-2.9,3.4-4.9
			c0.6-1.8,1.8-3.2,3.4-4.4c-0.3-0.3-0.3-0.5,0.2-0.7c1.3-0.4,2.6-0.6,2.9-2.9l0.7-4.2c0.1-1.2,0.3-2.4,0.7-3.4
			c0.2-1,0.2-2.1-0.1-3.2c0-1.2,0.1-2.2,0.6-3.1c0.5-0.8,1.2-1.5,2-2.1c-0.6-0.3-0.7-0.6-0.3-0.9c2.8-2.6,3.2-4.6,3.1-9.7
			c-0.6,0.2-1.1,0.8-1.3,0.4c-0.8,0.7-1.9,1.3-3.2,1.8c-0.4,0.2-0.7,0.7-0.8,1.2c0,0.7-0.1,1.4-0.4,2l-0.9,3
			c-0.3,0.9-0.5,2.4-0.7,3.9l-0.4,1.8c0.1,0.9-0.3,1.1-0.8,1.1c-0.3,0-0.1,0-0.3,0.1c-0.2,0.2-0.6,0.2-0.8,0c-0.3,0-0.6-0.1-0.6-0.3
			c-0.3-0.1-0.5-0.4-0.4-0.7c0.2-0.6,0.2-0.8,0.6-1.2c0.4-0.7,0.9-1.1,1.1-1.9c0.2-0.6,0.2-1.1,0.2-1.7c-0.1-2.2,0.1-4.4,0.5-6.7
			c-0.1-1,0.4-1.9,1.4-2.6c1-0.6,2-1.4,3.1-2.2c0-0.4,0.2-0.6,0.6-0.7c0.8-0.6,2.8-1.4,4.2-2.5c1.1-1.3,2.1-2.2,2.7-2
			c1-1.2,1.2-2.4-0.1-3.9c-0.2,0-0.3-0.4-0.5-1.3l-0.7,1.2c0,0-0.1,0-0.1,0l0-0.3c0,0-0.1-0.1-0.1,0c-0.4,0.7-0.9,1.6-1.2,1.9
			c0,0-0.1,0-0.1,0l0.1-0.3c0,0,0-0.1-0.1,0l-0.8,0.7c-0.1,0.1-0.2,0.2-0.3,0.4c0,0.3-0.1,0.5-0.3,0.7l0.1-0.5c0-0.1-0.1-0.1-0.1,0
			c-0.2,0.4-0.5,0.8-0.9,1.1c0,0,0,0,0,0l0.3-0.6c0,0,0,0,0,0L19,14.6l0.3-0.5c0,0,0-0.1-0.1-0.1c-0.6,0.7-1.5,1.1-2.7,1.2
			c0,0,0,0,0,0l0-0.1c0,0,0-0.1-0.1-0.1l-0.2,0l0.4-0.3L16,15c0,0,0,0,0,0l0.7-0.6c0,0,0,0,0,0c-0.3,0-0.7,0-1-0.1c0,0,0,0,0-0.1
			c0.2-0.2,0.6-0.5,1-0.7c0,0,0,0,0,0l-0.6,0c0,0,0,0,0,0l0.4-0.2c0,0,0-0.1,0-0.1L16.2,13c0,0,0-0.1,0-0.1l0.9-0.1
			c-0.1-0.1-0.5-0.1-1-0.1c0,0,0-0.1,0-0.1c0.5-0.6,1.2-0.9,2.2-0.7c-0.2-0.2-0.5-0.3-0.9-0.5c0,0,0,0,0,0c0.3-0.1,0.8,0,1.5,0.1
			c-0.4-0.1-0.7-0.2-1.1-0.2c0,0,0,0,0,0l0.9-0.2c-0.4-0.1-0.9-0.1-1.5,0c0,0-0.1,0,0-0.1c0.3-0.3,0.8-0.6,1.7-0.7
			c0-0.1-0.2-0.2-0.5-0.3c0,0,0,0,0-0.1c0.4-0.1,0.8-0.1,1.2,0c0-0.1-0.1-0.2-0.2-0.3c0,0,0-0.1,0-0.1c0.5-0.1,0.9-0.2,1.1-0.3
			c-0.2-0.1-0.4-0.1-0.8-0.1c0,0,0,0,0,0l0.8-0.4l-1,0.2c1-0.3,1.8-0.7,2-1.1l-1.4,0.3c0,0,0,0,0,0c0.7-0.4,1.4-0.8,2-1.2
			c0,0,0,0,0,0l-1.2,0.5c0.1-0.1,0.3-0.3,0.5-0.4c-0.2,0-0.3,0-0.5,0c0.6-0.2,1.2-0.3,1.6-0.5c0.1-0.1,0.3-0.2,0.4-0.3l0.1-0.1
			c0.2-0.2,0.4-0.3,0.6-0.4C24.4,5.5,24.8,5.7,25.1,6.4z"/>
	</g>
</g>
</svg>
