<?xml version="1.0" encoding="utf-8"?>
<!-- Generator: Adobe Illustrator 26.1.0, SVG Export Plug-In . SVG Version: 6.00 Build 0)  -->
<svg version="1.1" xmlns="http://www.w3.org/2000/svg" xmlns:xlink="http://www.w3.org/1999/xlink" x="0px" y="0px"
	 viewBox="0 0 74 74" style="enable-background:new 0 0 74 74;" xml:space="preserve">
<style type="text/css">
	.st0{display:none;}
	.st1{fill:none;stroke:#1F3242;stroke-miterlimit:10;}
	.st2{fill:none;stroke:#1F3242;stroke-miterlimit:10;stroke-dasharray:3.0428,3.0428;}
	.st3{fill:#1F3242;stroke:#1F3242;stroke-miterlimit:10;}
	.st4{fill:none;stroke:#1F3242;stroke-miterlimit:10;stroke-dasharray:2.8847,2.8847;}
</style>
<g id="Layer_1" class="st0">
	
		<image style="display:inline;overflow:visible;opacity:0.6;" width="200" height="200" xlink:href="../../../../../Pictures/Screenshots/jump.png"  transform="matrix(1 0 0 1 -114 -101)">
	</image>
</g>
<g id="Layer_2">
	<g>
		<g>
			<line class="st1" x1="37.8" y1="44.2" x2="37.8" y2="45.7"/>
			<path class="st2" d="M37.7,48.7l-0.4,20c-0.2,6,6.1,5.5,6.3-0.4l0.4-21"/>
			<line class="st1" x1="44" y1="45.7" x2="44" y2="44.2"/>
		</g>
	</g>
	<g>
		<g>
			<line class="st1" x1="29.2" y1="44.1" x2="29.2" y2="45.6"/>
			<path class="st2" d="M29.2,48.6l-0.4,20c-0.2,6,6.1,5.5,6.3-0.4l0.4-21"/>
			<line class="st1" x1="35.4" y1="45.6" x2="35.5" y2="44.1"/>
		</g>
	</g>
	<circle class="st3" cx="36.4" cy="11.1" r="7.5"/>
	<path class="st3" d="M28.9,21.7h15c5.7-1,6.7-8.3,4.1-15.5c-1.7-4.2,3.4-6.7,5.8-3.6c0.3,0.5,0.6,1,0.7,1.6l0.5,2.2
		c0.5,2.3,0.8,4.6,0.8,6.9c0,1.6,0,3.1,0,3.3c0.1,6.5-4.7,9.9-11.9,11.8v15.5l15,21.2c2.9,3.1-2.8,8.3-5.7,5.2L36.6,48L19.9,70.2
		c-2.2,2.8-8.2-1.8-6-4.6l15-20.7v-17C23,27.2,19,23.9,17.3,17.7C17.1,17,17,16.2,17,15.4v0c0-3.7,0.6-7.4,1.9-11l0.7-1.9
		c2.3-3.7,8-0.1,5.7,3.6C21,15.2,24.1,19,28.9,21.7z"/>
	<g>
		<g>
			<path class="st1" d="M44.1,21.9c0.4,0.3,0.8,0.6,1.1,1"/>
			<path class="st4" d="M47.2,25c3.5,4.3,5.8,10.3,6.7,18.1c0.7,4.2-5.5,5.2-6.2,1c-0.5-3.2-1.3-6.2-2.4-9.1"/>
			<path class="st1" d="M44.7,33.7c-0.2-0.5-0.4-0.9-0.6-1.4"/>
		</g>
	</g>
	<g>
		<g>
			<path class="st1" d="M28.9,21.8c-0.4,0.3-0.8,0.6-1.1,1"/>
			<path class="st4" d="M25.8,24.9C22.3,29.2,20,35.2,19.1,43c-0.7,4.2,5.5,5.2,6.2,1c0.5-3.2,1.3-6.2,2.4-9.1"/>
			<path class="st1" d="M28.3,33.6c0.2-0.5,0.4-0.9,0.6-1.4"/>
		</g>
	</g>
	<path class="st1" d="M64.5,13.9c9.3,0,9.3,25.3,0,25.3"/>
	<polygon class="st3" points="61.8,13.2 65.8,11.7 65.1,16 	"/>
	<polygon class="st3" points="61.5,39.6 64.4,36.4 65.7,40.5 	"/>
	<path class="st1" d="M9.5,14.4c-9.3,0-9.3,25.3,0,25.3"/>
	<polygon class="st3" points="12.2,13.8 8.2,12.2 8.9,16.5 	"/>
	<polygon class="st3" points="12.5,40.1 9.6,36.9 8.3,41.1 	"/>
</g>
</svg>
