<?xml version="1.0" encoding="utf-8"?>
<!-- Generator: Adobe Illustrator 26.1.0, SVG Export Plug-In . SVG Version: 6.00 Build 0)  -->
<svg version="1.1" id="Layer_2" xmlns="http://www.w3.org/2000/svg" xmlns:xlink="http://www.w3.org/1999/xlink" x="0px" y="0px"
	 viewBox="0 0 124 135" style="enable-background:new 0 0 124 135;" xml:space="preserve">
<style type="text/css">
	.st0{fill:#1F3242;}
	.st1{fill:none;stroke:#1F3242;stroke-width:6;stroke-miterlimit:10;}
	.st2{stroke:#1F3242;stroke-width:2;stroke-linecap:round;stroke-miterlimit:10;}
	.st3{fill:none;stroke:#FF0C46;stroke-miterlimit:10;}
</style>
<path class="st0" d="M95,29.9l3-3.5c-4-3.4,1.3-9.6,5.3-6.1l8.7,7.5c3.9,3.4-1.4,9.5-5.3,6.1l-3,3.5C101.4,34.7,98.4,32.2,95,29.9z"
	/>
<path class="st0" d="M29,30.6l-3-3.5c4-3.4-1.3-9.6-5.3-6.1L12,28.6c-3.9,3.4,1.4,9.5,5.3,6.1l3,3.5C22.7,35.4,25.6,32.9,29,30.6z"
	/>
<path class="st0" d="M62.4,69.7c-3.5,0-6.3,2.8-6.3,6.3c0,3.5,2.8,6.3,6.3,6.3s6.3-2.8,6.3-6.3C68.7,72.5,65.9,69.7,62.4,69.7z
	 M62.4,78.4c-1.3,0-2.4-1.1-2.4-2.4c0-1.3,1.1-2.4,2.4-2.4c1.3,0,2.4,1.1,2.4,2.4C64.8,77.3,63.7,78.4,62.4,78.4z"/>
<polyline class="st0" points="68.1,73.2 89.7,76 67.7,79.5 "/>
<g>
	<circle class="st1" cx="62" cy="74.7" r="56.3"/>
	<path class="st0" d="M55.3,16.4v-6c-6.8,0-6.8-10.5,0-10.5h14.9c6.7,0,6.7,10.5,0,10.5v6C65.6,15.7,60.6,15.8,55.3,16.4z"/>
	<line class="st2" x1="61.9" y1="29.8" x2="61.9" y2="37.6"/>
</g>
<line class="st2" x1="84.6" y1="37.3" x2="80.4" y2="43.9"/>
<line class="st2" x1="99.7" y1="54" x2="93.6" y2="58.8"/>
<line class="st2" x1="106.9" y1="75.4" x2="99.1" y2="75.4"/>
<line class="st2" x1="94.5" y1="95.2" x2="101.6" y2="98.6"/>
<line class="st2" x1="80.5" y1="107.7" x2="84" y2="114.7"/>
<line class="st2" x1="61.6" y1="112" x2="61.6" y2="119.8"/>
<line class="st2" x1="40.5" y1="37.6" x2="44.7" y2="44.2"/>
<line class="st2" x1="25.4" y1="54.2" x2="31.5" y2="59.1"/>
<line class="st2" x1="18.2" y1="75.7" x2="26" y2="75.7"/>
<line class="st2" x1="30.6" y1="95.5" x2="23.5" y2="98.9"/>
<line class="st2" x1="44.6" y1="108" x2="41.1" y2="115"/>
<g>
	<line class="st3" x1="20.6" y1="17.5" x2="104" y2="118.1"/>
	<g>
		<line class="st3" x1="103.5" y1="17" x2="20" y2="117.5"/>
	</g>
</g>
</svg>
