<?xml version="1.0" encoding="utf-8"?>
<!-- Generator: Adobe Illustrator 26.1.0, SVG Export Plug-In . SVG Version: 6.00 Build 0)  -->
<svg version="1.1" xmlns="http://www.w3.org/2000/svg" xmlns:xlink="http://www.w3.org/1999/xlink" x="0px" y="0px"
	 viewBox="0 0 55 73" style="enable-background:new 0 0 55 73;" xml:space="preserve">
<style type="text/css">
	.st0{display:none;}
	.st1{fill:#1F3242;}
</style>
<g id="Layer_1" class="st0">
	
		<image style="display:inline;overflow:visible;opacity:0.6;" width="3840" height="1080" xlink:href="../../../../../Pictures/Screenshots/Screenshot (89).png"  transform="matrix(1 0 0 1 -3395 -688.5)">
	</image>
</g>
<g id="Layer_2">
	<g>
		<circle class="st1" cx="42.4" cy="18.8" r="6.1"/>
		<path class="st1" d="M48.9,0.6C37.7,1.9,30.1,7.3,25,15.5c-4.6,6.4-8.7,14.7-12.5,23.7C8.8,46.1,5.1,55.6,1.3,65.8
			c-2.6,6,5.7,9.7,8.4,3.7l7.7-20.1l9.6,20.1c2.5,4.8,10.4,0.7,7.9-4.1l-9.9-21.5c0.7,0.2,1.5,0.2,2.3,0l14.1-2.7
			c1.8-0.7,2.7-2.2,2.3-4.9c-1-4.2-3.7-8.2-7.7-12c-0.9-2.2-2.5-3.9-4.6-5.4c4.2-6,10-10.2,18.4-11.3C56.9,7.1,54.5-0.4,48.9,0.6z
			 M32.4,31.2c0.1-0.1,0.3-0.1,0.4,0c0.9,1.1,1.8,2.3,2.5,3.6c0.1,0.1,0,0.3-0.2,0.3c-2.1,0.4-4.2,0.8-6.4,1c-0.1,0-0.1-0.1-0.1-0.2
			C29.9,34.2,31.2,32.5,32.4,31.2z"/>
	</g>
</g>
</svg>
