<?xml version="1.0" encoding="utf-8"?>
<!-- Generator: Adobe Illustrator 26.1.0, SVG Export Plug-In . SVG Version: 6.00 Build 0)  -->
<svg version="1.1" id="Layer_2" xmlns="http://www.w3.org/2000/svg" xmlns:xlink="http://www.w3.org/1999/xlink" x="0px" y="0px"
	 viewBox="0 0 138 135" style="enable-background:new 0 0 138 135;" xml:space="preserve">
<style type="text/css">
	.st0{fill:#1F3242;}
	.st1{fill:none;stroke:#FF0C46;stroke-miterlimit:10;}
</style>
<g>
	<circle class="st0" cx="63.1" cy="11" r="10.5"/>
	<path class="st0" d="M55.2,24.9l3.8,1.7c4.3,1.9,7.9,5.1,10.3,9.1l2.7,4.6c1,1.7,2.9,2.5,4.8,2.2l17.9-3c8.1-1.4,10.1,10.6,2,12
		l-22,5l0,0c-4.1,1.3-8.5-0.3-10.8-3.9l-3.2-5.1l-6.4,19.2c-0.4,1.1,0,2.2,0.8,2.9L69.6,82c3,2.3,3.2,5.2,2,8.5l-8.5,22.2
		c-3.9,9.4-16.4,4.1-12.5-5.2l7-18l-17-13l-1,12c-0.3,4.3-3.3,6.5-7,8l-22,7c-7.7,3-12.7-10-5-13l13.6-3.8c4.6-1.3,8.5-4.6,10.1-9.2
		c0.1-0.3,0.2-0.7,0.3-1l10-36C38,40,36.5,39.8,34.9,40c-2.5,0.3-4.4,2.5-4.4,5.1v12.5c0,8.2-13,8.2-13,0v-20c1.2-3.4,3.1-6,6-7
		l20.2-6.2C47.5,23.1,51.6,23.4,55.2,24.9z"/>
	<path class="st0" d="M107.6,72.5v40l-96,8c-6.8,0-6.8,13.6,0,13.6l113,0.4c11.9,0,11.9-24.5,0-24.5V65.8l10-6.3
		c5.5-4.5-3.5-15.5-9-11l-34,21c-5.2,3.7-0.2,10.7,5,7L107.6,72.5z"/>
	<g>
		<line class="st1" x1="27.9" y1="17.5" x2="111.3" y2="118"/>
		<g>
			<line class="st1" x1="110.8" y1="16.9" x2="27.3" y2="117.4"/>
		</g>
	</g>
</g>
</svg>
