<?xml version="1.0" encoding="utf-8"?>
<!-- Generator: Adobe Illustrator 26.1.0, SVG Export Plug-In . SVG Version: 6.00 Build 0)  -->
<svg version="1.1" xmlns="http://www.w3.org/2000/svg" xmlns:xlink="http://www.w3.org/1999/xlink" x="0px" y="0px"
	 viewBox="0 0 67.9 81" style="enable-background:new 0 0 67.9 81;" xml:space="preserve">
<style type="text/css">
	.st0{display:none;}
	.st1{fill:#1F3242;stroke:#1F3242;stroke-width:0.5;stroke-miterlimit:10;}
	.st2{fill:#FF0C46;}
</style>
<g id="Layer_1" class="st0">
	
		<image style="display:inline;overflow:visible;" width="900" height="1080" xlink:href="AFBD83EC.jpg"  transform="matrix(0.663 0 0 0.663 168.2558 -322.3026)">
	</image>
</g>
<g id="Layer_2">
	<g>
		<g>
			<path class="st1" d="M46,11.9c0.2,0,0.3-0.1,0.4-0.2c1-1.2,1.1-2.6,0.3-4.2c-1.1-2.5-0.8-4.5,1.4-6c2-1.2,4.1-1.3,6.2-0.3
				c0.3,0.2,0.6,0.4,0.8,0.7c0.4,0.5,0.8,0.7,1.3,0.4c0.1,0,0.1,0,0.1,0.1l-0.1,0.1c0,0.1,0,0.1,0.1,0.2l0,0c0.1,0,0.1,0.1,0.1,0.2
				l0,0.1c0,0.1,0,0.2,0.1,0.2l0,0c0.1,0,0.1,0.1,0,0.2l0,0c-0.1,0-0.1,0.1,0,0.2v0c0.1,0.1,0,0.2-0.1,0.3C56.4,3.9,56.2,4,56,4.1
				c-0.1,0-0.2,0.1-0.1,0.3C56,4.9,56,5.4,55.8,6c0,0.1,0,0.2,0,0.3c0.2,0.4,0.4,0.8,0.7,1.2c0.3,0.4,0.3,0.7-0.1,0.9l-0.5,0.2
				l0,0.7c-0.3,0.1-0.3,0.3-0.3,0.5c-0.3,0.3-0.4,0.5-0.3,0.9c0.2,0.7-0.2,0.9-0.7,1l-1.3,0c-0.4,0.1-0.6,0.2-0.7,0.5
				c-0.1,0.5-0.2,1-0.4,1.5c0,0.1,0,0.2,0,0.3c1.9,3,2.8,6,2.5,9c0,0.3-0.1,0.5-0.2,0.8L54,24.8l6.3,0.3c0.2,0,0.4-0.1,0.6-0.2
				c0.3-0.2,0.5-0.4,0.7-0.6c0.2-0.4,0.6-0.6,1.1-0.7c0.6,0,1-0.1,1.4-0.3c0.2-0.1,0.4-0.1,0.6-0.1c1,0,1.2,0.4,1,1.1
				c1,0.4,0.9,0.8,0.5,1.2c0.7,0.4,0.6,0.8,0,1.4c0.4,0.5,0.3,0.8-0.3,1h-2.1c-0.5,0.2-1.2,0.1-2-0.2c-2.4,0.3-6.9,1.7-8.9,1.8
				c-0.1,0-0.2,0.1-0.3,0.1c-1.6,2.3-2.6,4.7-3.1,7.4l0.3,0.2c0,3.2,3,6.1,5.3,8.6l-0.4,0.5c2.2,2.7,3.9,5.3,4.5,7.8
				c0.2,0.6,0.2,1.2,0.2,1.8c0,0.3-0.1,0.5-0.2,0.8c-0.8,1.5-1.3,3.5-1.8,5.6c-0.6,2.3-1,4.8-1.4,7.4l0.2,0.2
				c-0.6,2.2-0.8,4.4,0,4.6c1.5,1.4,3.3,2.6,5.3,3.7c0.1,0.1,0.3,0.1,0.4,0.2c2,0.6,1.6,2.2,0.1,2.2c-1.8,0.2-3.6,0-5.6-0.5
				c-1.7-0.5-3.4-0.9-5-1c-1.8-0.3-2.5-1.1-1.4-2.6l1.1-1.9l-0.1-0.5c-0.1-0.5-0.1-0.8,0.5-0.8l0-3.7l0.3,0c0-1.8,0-3.4-0.3-5
				c-0.2-1.4-0.2-2.6,0.2-3.8c0.6-1.5,1.3-2.8,2.3-3.8c0.4-0.6,0.3-1.2-0.3-1.8l-5.2-3.5L48,52c-1.3-1.5-2.6-2.8-3.8-3.7
				c-0.1-0.1-0.2,0-0.3,0l-0.8,1.1c-2-2.4-4.5-4.1-7.3-5.2c0.7-1.1,0.9-2.7,0.8-4.7c-0.1-2.1,0.7-3.6,2.4-4.4
				c-0.1,0-0.2-0.2-0.2-0.5l8.9-7.6c1.1-0.8,2-1.5,2.8-1.6c0.3-0.2,0.5-0.3,0.3-0.7c0.3-0.4,0.2-1.1-0.1-1.3c0.3-0.7,0-1-0.7-1
				c0.2-0.5-0.9-1.2-1.4-0.4c-0.1-0.2-1.1,0.3-1.3,0.4c-0.2,0.1-0.6,0.6-0.5,1.2c-0.1,1.1-0.4,1.7-0.9,2.1c-2.2,1.9-6.2,3.5-7,5.1
				c-0.4-1.7-1-3.3-1.9-4.7c0.3-0.2,0.3-0.5,0.2-0.8l-2.5-4l2.8-2.7c-0.4-0.3-0.3-0.7,0.1-1.1c1.3-1,2.7-2.1,3.6-3.1
				c0.3-0.3,0.6-0.6,1-0.8c0.9-0.5,1.8-0.7,2.8-0.8c0.1,0,0.3-0.1,0.4-0.2C45.5,12.1,45.7,11.9,46,11.9z"/>
			<path class="st1" d="M32,50.9c-0.9,2.8-2.2,3.8-3.6,3.9c-1.8,0.3-3.3,0.9-4.8,1.7c-1.2,3.4-2.5,5.6-4.1,6.7
				c-0.1,0.1-0.1,0.1-0.2,0.2c-0.5,0.6-1.1,0.5-1.8,0c-2.6,2.2-4.8,4.5-6.8,6.9c-0.3,1.9,0,3.7,0.8,5.2l0.9,1.6
				c0.4,1.2,1.6,0.8,1.7,0c-0.1-2.5,1.7-6.2,2.6-8L16.5,69c1.1-1.3,2.4-2.4,3.9-3.4l-0.2-0.2l1.5-0.9c0-0.4,0-0.8,0.7-1
				c0.3-0.1,0.6-0.2,0.7-0.6c0.6-0.8,1.4-1.3,2.4-1.3h1.1c1.7-0.9,3.5-2.6,5.4-4.7c1.5-1.9,3.4-3.6,5.1-4.3l-0.3-0.6
				c-0.8-0.2-1.6-0.3-2.4-0.4C33.5,51.4,32.7,51.2,32,50.9z"/>
		</g>
		<path class="st2" d="M29.9,7c1.4-2.9,6.6-3,8.4,0c0.2,0.3,0.2,0.7,0,1c0.5,1,0.6,1.8,0.3,2.4c-0.2,0.5-0.1,0.9,0.3,1.2
			c0.8,0.9,0.7,1.4,0.1,1.5c0.1,0.7,0,1-0.3,0.9c0.2,0.3,0.1,0.6-0.1,0.8c-0.1,0.2-0.1,0.3-0.1,0.5c0,0.6-0.3,0.8-0.8,0.8
			c-1.1-0.3-1.9-0.3-2.4,0.2c-0.6,0.6-0.9,1.3-1,2.1c0.1,0.2,0.1,0.3,0,0.5c-0.2,0.3-0.2,0.7-0.1,1c0.2,1,2.5,4,3,5.2
			c0.3,0.4,0.1,0.6-0.2,0.7c0.9,1.6,1.7,3.1,1.8,4.6c0.8-1.1,2.3-1.9,3.1-2.4c1.9-1,3.6-2.1,4.6-3.4c0.1-0.3,0.1-0.8,0.2-1.2
			c0.1-0.5,0.2-0.8,0.6-1.1c0.1-0.1,0.2-0.2,0.3-0.2c0.2-0.2,0.5-0.2,0.8-0.2c1.2-0.7,2.1-0.2,1.7,0.4c0.6-0.1,1.3,0.5,0.7,1
			c1,0.1,0.3,0.9,0.3,0.9c0.4,0.2,0.7,0.6-0.2,1.1c-0.7,0.2-1.6,0.7-2.2,1.1c0,0-0.1,0.1-0.1,0.1c-0.9,0.7-2,1.6-3.1,2.7
			c-0.5,0.5-1,0.9-1.5,1.3c-1.5,1.2-3.1,2.5-4.6,3.9c-0.6,0.5-1.1,0.5-1.6,0.2C37,34,36.5,33.2,36,32.3c-0.1-0.4-0.4-0.5-0.7-0.3
			c-1.3,0.7-2.3,1.6-2.8,2.7C32.2,35.4,32,36,32,36.6c-0.3,2.3-0.8,3.6-1.3,4.5c1.1,1.2,2.9,2.2,5.1,3.1c3.7,1.6,6.6,3.7,8.1,6.5
			c1.2,2.4,1,4-0.5,5c-0.5,0.4-1,0.7-1.5,0.9c-0.4,0.3-0.9,0.2-1.3-0.1c-3.8,1.7-8.5,4.7-11.2,7.4c-0.1,0.1-0.1,0.3,0,0.4
			c0.4,0,0.4,0.2,0.1,0.4c-0.1,0.3,0,0.4,0.2,0.4c0.7-0.2,0.8,0.4,0.1,0.6c-0.5,2-0.4,3.7,0.2,5.3c0.7,2-0.4,2.6-1.5,1.5
			c-1.2-1.1-2.4-2.5-3.4-4.1v-0.6c-0.2-0.6-0.4-1-0.8-1.4c-0.2-0.2-0.5-0.3-0.9-0.3c-0.6-0.4-1.1-1-1.4-1.6c-0.5-0.3-0.2-1,0.5-1.2
			c0.3-0.2,0.6-0.3,0.6-0.6c0.6-0.9,1.6-1.4,2.3-1.4c0.4-0.1,0.8,0,1.3,0c2.3-1.3,4-3.3,5.8-5.1c1.2-1.6,4-3.8,4.7-3.8L36.9,52
			c-0.6-0.2-1.4-0.4-2.2-0.4c-1,0-1.9-0.2-2.7-0.6c-1.5-0.4-3.1-1.2-4.7-2.1c-0.4-0.1-0.6,0-0.6,0.4c-0.3,1.7-1.8,4.6-2.9,7.3
			c-1.1,2.8-2.4,5.9-4.4,6.9c-0.2,0.5-1.1,0.5-1.7,0c-1.7,1.4-4.3,4.1-6.9,6.9c-1,1-1.7,2.1-2.1,3.2c0.6,0.1,0.7,0.4,0.3,0.7
			c0.7-0.1,0.9,0.2,0.3,0.9c-0.5,0.9-0.5,1.9-0.3,3c0.4,0,0.6,0.1,0.7,0.4c0.8,0.1,1.2,0.4,1.6,0.9c0.6,0.5,0.4,0.8,0,1.1
			c-1.4,0.2-3,0.1-4.6-0.3c-0.9-0.4-1.7-1-2.3-1.8C4,78,4,77.7,4,77.4l0-0.6l-0.4-0.6c-0.2-0.2-0.4-0.3-0.7-0.4
			c-0.6-0.3-1.1-0.7-1.3-1.2C1,74,1,73.5,1.7,73.3c0.4-0.3,0.8-0.5,1-0.9c0.5-0.9,1.6-1.4,3.1-1.5c1.4-1.4,2.8-3.3,4-5.7
			c0.7-2.1,2.1-3.7,4-5.1c-0.3-0.3-0.3-0.6,0.2-0.8c1.5-0.5,3.1-0.7,3.4-3.4l0.8-4.9c0.1-1.4,0.3-2.8,0.8-4c0.2-1.2,0.2-2.5-0.1-3.7
			c0-1.4,0.2-2.6,0.7-3.6c0.6-0.9,1.4-1.7,2.3-2.4c-0.7-0.4-0.8-0.7-0.3-1.1c3.3-3,3.8-5.4,3.6-11.4c-0.7,0.3-1.2,0.9-1.5,0.5
			c-0.9,0.8-2.2,1.5-3.7,2.1c-0.5,0.3-0.8,0.8-0.9,1.4c0,0.8-0.1,1.6-0.5,2.3l-1.1,3.5c-0.4,1.1-0.6,2.8-0.8,4.6l-0.5,2.2
			c0.1,1-0.3,1.2-0.9,1.3c-0.3,0-0.1,0-0.3,0.1c-0.2,0.2-0.7,0.2-0.9,0c-0.4,0-0.7-0.1-0.7-0.4c-0.4-0.1-0.6-0.4-0.4-0.8
			c0.2-0.7,0.2-0.9,0.7-1.4c0.5-0.8,1-1.3,1.3-2.3c0.2-0.7,0.3-1.3,0.2-2c-0.1-2.5,0.1-5.2,0.6-7.9c-0.1-1.2,0.4-2.2,1.6-3.1
			c1.1-0.7,2.3-1.7,3.7-2.6c0-0.5,0.2-0.7,0.7-0.8c0.9-0.7,3.3-1.6,4.9-2.9c1.3-1.5,2.5-2.6,3.1-2.4c1.1-1.4,1.5-2.8-0.1-4.6
			c-0.2,0-0.4-0.5-0.5-1.5l-0.9,1.4c0,0-0.1,0-0.1,0l0-0.4c0-0.1-0.1-0.1-0.1,0c-0.5,0.9-1,1.9-1.4,2.3c0,0-0.1,0-0.1,0l0.1-0.3
			c0-0.1,0-0.1-0.1-0.1l-1,0.8c-0.1,0.1-0.3,0.3-0.3,0.4c0,0.3-0.2,0.6-0.4,0.8l0.1-0.6c0-0.1-0.1-0.1-0.1-0.1
			c-0.2,0.5-0.6,0.9-1,1.3c0,0-0.1,0,0,0l0.4-0.8c0,0,0-0.1,0,0l-1.6,1.7L23,16c0,0,0-0.1-0.1-0.1c-0.7,0.9-1.8,1.3-3.1,1.4
			c0,0-0.1,0,0-0.1l0-0.2c0,0,0-0.1-0.1-0.1l-0.3,0l0.4-0.3L19.2,17c0,0,0,0,0,0l0.8-0.7c0,0,0,0,0,0c-0.4,0-0.8,0-1.2-0.1
			c0,0-0.1-0.1,0-0.1c0.3-0.3,0.7-0.6,1.1-0.8c0,0,0,0,0,0l-0.6,0c0,0,0,0,0,0l0.4-0.2c0,0,0-0.1,0-0.1l-0.2-0.1c0,0,0-0.1,0-0.1
			l1-0.1c-0.2-0.1-0.6-0.1-1.1-0.1c0,0-0.1-0.1,0-0.1c0.6-0.7,1.5-1,2.6-0.9c-0.2-0.2-0.6-0.4-1.1-0.5c0,0,0-0.1,0,0
			c0.4-0.1,1,0,1.7,0.1c-0.4-0.1-0.8-0.2-1.3-0.3c0,0,0,0,0,0l1-0.2c-0.5-0.2-1.1-0.2-1.8,0c0,0-0.1,0-0.1-0.1
			c0.3-0.4,0.9-0.7,2-0.8c0-0.1-0.3-0.2-0.5-0.3c0,0,0-0.1,0-0.1c0.4-0.1,0.9-0.1,1.4,0c0-0.1-0.1-0.2-0.3-0.3c0,0,0-0.1,0-0.1
			c0.6-0.1,1.1-0.2,1.3-0.4c-0.2-0.1-0.5-0.1-0.9-0.1c0,0,0,0,0,0l0.9-0.4l-1.2,0.3c1.2-0.4,2.1-0.8,2.3-1.3L24,9.2c0,0,0,0,0,0
			c0.9-0.4,1.6-0.9,2.4-1.4c0,0,0,0,0,0L25,8.3c0.1-0.2,0.3-0.3,0.6-0.5c-0.2,0.1-0.4,0.1-0.5,0c0.8-0.2,1.4-0.4,1.9-0.6
			c0.2-0.1,0.3-0.2,0.4-0.3l0.2-0.2c0.2-0.2,0.4-0.4,0.7-0.5C29,6,29.5,6.2,29.9,7z"/>
	</g>
</g>
</svg>
